<svg width="427" height="20" viewBox="0 0 427 20" fill="none" xmlns="http://www.w3.org/2000/svg">
<path d="M8.66 8.78C9.63333 8.98 10.3733 9.37333 10.88 9.96C11.3867 10.5333 11.64 11.2867 11.64 12.22C11.64 13.4333 11.2067 14.3667 10.34 15.02C9.48667 15.6733 8.22667 16 6.56 16H0.36V2H6.18C7.67333 2 8.84 2.30667 9.68 2.92C10.52 3.53333 10.94 4.42 10.94 5.58C10.94 6.36667 10.74 7.03333 10.34 7.58C9.94 8.11333 9.38 8.51333 8.66 8.78ZM1.82 8.34H6.1C7.18 8.34 8.00667 8.12 8.58 7.68C9.16667 7.24 9.46 6.6 9.46 5.76C9.46 4.92 9.16667 4.28 8.58 3.84C8.00667 3.4 7.18 3.18 6.1 3.18H1.82V8.34ZM6.56 14.82C8.97333 14.82 10.18 13.92 10.18 12.12C10.18 10.36 8.97333 9.48 6.56 9.48H1.82V14.82H6.56ZM19.3405 16.1C18.3271 16.1 17.4138 15.8733 16.6005 15.42C15.7871 14.9533 15.1471 14.3133 14.6805 13.5C14.2138 12.6867 13.9805 11.7667 13.9805 10.74C13.9805 9.71333 14.2138 8.79333 14.6805 7.98C15.1471 7.16667 15.7871 6.53333 16.6005 6.08C17.4138 5.62667 18.3271 5.4 19.3405 5.4C20.3538 5.4 21.2671 5.62667 22.0805 6.08C22.8938 6.53333 23.5271 7.16667 23.9805 7.98C24.4471 8.79333 24.6805 9.71333 24.6805 10.74C24.6805 11.7667 24.4471 12.6867 23.9805 13.5C23.5271 14.3133 22.8938 14.9533 22.0805 15.42C21.2671 15.8733 20.3538 16.1 19.3405 16.1ZM19.3405 14.84C20.0871 14.84 20.7538 14.6733 21.3405 14.34C21.9405 13.9933 22.4071 13.5067 22.7405 12.88C23.0738 12.2533 23.2405 11.54 23.2405 10.74C23.2405 9.94 23.0738 9.22667 22.7405 8.6C22.4071 7.97333 21.9405 7.49333 21.3405 7.16C20.7538 6.81333 20.0871 6.64 19.3405 6.64C18.5938 6.64 17.9205 6.81333 17.3205 7.16C16.7338 7.49333 16.2671 7.97333 15.9205 8.6C15.5871 9.22667 15.4205 9.94 15.4205 10.74C15.4205 11.54 15.5871 12.2533 15.9205 12.88C16.2671 13.5067 16.7338 13.9933 17.3205 14.34C17.9205 14.6733 18.5938 14.84 19.3405 14.84ZM36.2567 5.48V16H34.8367V6.74H29.7967L29.6567 9.34C29.5501 11.5267 29.2967 13.2067 28.8967 14.38C28.4967 15.5533 27.7834 16.14 26.7567 16.14C26.4767 16.14 26.1367 16.0867 25.7367 15.98L25.8367 14.76C26.0767 14.8133 26.2434 14.84 26.3367 14.84C26.8834 14.84 27.2967 14.5867 27.5767 14.08C27.8567 13.5733 28.0434 12.9467 28.1367 12.2C28.2301 11.4533 28.3101 10.4667 28.3767 9.24L28.5567 5.48H36.2567ZM54.8134 5.48V16H40.2934V5.48H41.7134V14.76H46.8734V5.48H48.2934V14.76H53.3934V5.48H54.8134ZM68.0677 11.18H59.2677C59.3477 12.2733 59.7677 13.16 60.5277 13.84C61.2877 14.5067 62.2477 14.84 63.4077 14.84C64.061 14.84 64.661 14.7267 65.2077 14.5C65.7543 14.26 66.2277 13.9133 66.6277 13.46L67.4277 14.38C66.961 14.94 66.3743 15.3667 65.6677 15.66C64.9743 15.9533 64.2077 16.1 63.3677 16.1C62.2877 16.1 61.3277 15.8733 60.4877 15.42C59.661 14.9533 59.0143 14.3133 58.5477 13.5C58.081 12.6867 57.8477 11.7667 57.8477 10.74C57.8477 9.71333 58.0677 8.79333 58.5077 7.98C58.961 7.16667 59.5743 6.53333 60.3477 6.08C61.1343 5.62667 62.0143 5.4 62.9877 5.4C63.961 5.4 64.8343 5.62667 65.6077 6.08C66.381 6.53333 66.9877 7.16667 67.4277 7.98C67.8677 8.78 68.0877 9.7 68.0877 10.74L68.0677 11.18ZM62.9877 6.62C61.9743 6.62 61.121 6.94667 60.4277 7.6C59.7477 8.24 59.361 9.08 59.2677 10.12H66.7277C66.6343 9.08 66.241 8.24 65.5477 7.6C64.8677 6.94667 64.0143 6.62 62.9877 6.62ZM76.3309 5.74C77.3043 5.74 78.1709 5.96 78.9309 6.4C79.7043 6.82667 80.3043 7.43333 80.7309 8.22C81.1576 8.99333 81.3709 9.88 81.3709 10.88C81.3709 11.9067 81.1443 12.82 80.6909 13.62C80.2509 14.4067 79.6309 15.02 78.8309 15.46C78.0309 15.9 77.1109 16.12 76.0709 16.12C74.3243 16.12 72.9709 15.5067 72.0109 14.28C71.0509 13.0533 70.5709 11.36 70.5709 9.2C70.5709 6.94667 70.9976 5.22 71.8509 4.02C72.7176 2.82 74.0643 2.00667 75.8909 1.58L80.6109 0.499999L80.8509 1.8L76.4109 2.82C74.9043 3.15333 73.7976 3.74667 73.0909 4.6C72.3843 5.44 71.9976 6.68667 71.9309 8.34C72.3576 7.52667 72.9509 6.89333 73.7109 6.44C74.4709 5.97333 75.3443 5.74 76.3309 5.74ZM76.1109 14.94C76.8443 14.94 77.4976 14.7733 78.0709 14.44C78.6576 14.0933 79.1109 13.6133 79.4309 13C79.7643 12.3867 79.9309 11.6933 79.9309 10.92C79.9309 10.1467 79.7709 9.46667 79.4509 8.88C79.1309 8.29333 78.6776 7.84 78.0909 7.52C77.5176 7.18667 76.8576 7.02 76.1109 7.02C75.3643 7.02 74.6976 7.18667 74.1109 7.52C73.5376 7.84 73.0843 8.29333 72.7509 8.88C72.4309 9.46667 72.2709 10.1467 72.2709 10.92C72.2709 11.6933 72.4309 12.3867 72.7509 13C73.0843 13.6133 73.5443 14.0933 74.1309 14.44C74.7176 14.7733 75.3776 14.94 76.1109 14.94ZM84.4145 5.48H85.8345V10.14H92.4545V5.48H93.8745V16H92.4545V11.36H85.8345V16H84.4145V5.48ZM102.331 9.2C103.651 9.21333 104.657 9.50667 105.351 10.08C106.044 10.6533 106.391 11.48 106.391 12.56C106.391 13.68 106.017 14.54 105.271 15.14C104.524 15.74 103.457 16.0333 102.071 16.02L97.9106 16V5.48H99.3306V9.16L102.331 9.2ZM108.151 5.48H109.571V16H108.151V5.48ZM101.991 14.94C102.964 14.9533 103.697 14.76 104.191 14.36C104.697 13.9467 104.951 13.3467 104.951 12.56C104.951 11.7867 104.704 11.2133 104.211 10.84C103.717 10.4667 102.977 10.2733 101.991 10.26L99.3306 10.22V14.9L101.991 14.94ZM113.614 5.48H115.034V13.84L122.054 5.48H123.314V16H121.894V7.64L114.894 16H113.614V5.48ZM118.394 3.96C117.487 3.96 116.767 3.73333 116.234 3.28C115.7 2.82667 115.427 2.18667 115.414 1.36H116.434C116.447 1.88 116.634 2.3 116.994 2.62C117.354 2.92667 117.82 3.08 118.394 3.08C118.967 3.08 119.434 2.92667 119.794 2.62C120.167 2.3 120.36 1.88 120.374 1.36H121.394C121.38 2.18667 121.1 2.82667 120.554 3.28C120.02 3.73333 119.3 3.96 118.394 3.96ZM144.378 5.48V16H143.078V7.68L138.818 14.72H138.178L133.918 7.66V16H132.618V5.48H134.058L138.518 13.06L143.058 5.48H144.378ZM148.418 5.48H149.838V13.84L156.858 5.48H158.118V16H156.698V7.64L149.698 16H148.418V5.48ZM167.608 5.4C168.595 5.4 169.488 5.62667 170.288 6.08C171.088 6.52 171.715 7.14667 172.168 7.96C172.621 8.77333 172.848 9.7 172.848 10.74C172.848 11.7933 172.621 12.7267 172.168 13.54C171.715 14.3533 171.088 14.9867 170.288 15.44C169.501 15.88 168.608 16.1 167.608 16.1C166.755 16.1 165.981 15.9267 165.288 15.58C164.608 15.22 164.048 14.7 163.608 14.02V19.88H162.188V5.48H163.548V7.56C163.975 6.86667 164.535 6.33333 165.228 5.96C165.935 5.58667 166.728 5.4 167.608 5.4ZM167.508 14.84C168.241 14.84 168.908 14.6733 169.508 14.34C170.108 13.9933 170.575 13.5067 170.908 12.88C171.255 12.2533 171.428 11.54 171.428 10.74C171.428 9.94 171.255 9.23333 170.908 8.62C170.575 7.99333 170.108 7.50667 169.508 7.16C168.908 6.81333 168.241 6.64 167.508 6.64C166.761 6.64 166.088 6.81333 165.488 7.16C164.901 7.50667 164.435 7.99333 164.088 8.62C163.755 9.23333 163.588 9.94 163.588 10.74C163.588 11.54 163.755 12.2533 164.088 12.88C164.435 13.5067 164.901 13.9933 165.488 14.34C166.088 14.6733 166.761 14.84 167.508 14.84ZM184.753 5.4C186.127 5.4 187.18 5.74667 187.913 6.44C188.647 7.12 189.013 8.13333 189.013 9.48V16H187.653V14.36C187.333 14.9067 186.86 15.3333 186.233 15.64C185.62 15.9467 184.887 16.1 184.033 16.1C182.86 16.1 181.927 15.82 181.233 15.26C180.54 14.7 180.193 13.96 180.193 13.04C180.193 12.1467 180.513 11.4267 181.153 10.88C181.807 10.3333 182.84 10.06 184.253 10.06H187.593V9.42C187.593 8.51333 187.34 7.82667 186.833 7.36C186.327 6.88 185.587 6.64 184.613 6.64C183.947 6.64 183.307 6.75333 182.693 6.98C182.08 7.19333 181.553 7.49333 181.113 7.88L180.473 6.82C181.007 6.36667 181.647 6.02 182.393 5.78C183.14 5.52667 183.927 5.4 184.753 5.4ZM184.253 14.98C185.053 14.98 185.74 14.8 186.313 14.44C186.887 14.0667 187.313 13.5333 187.593 12.84V11.12H184.293C182.493 11.12 181.593 11.7467 181.593 13C181.593 13.6133 181.827 14.1 182.293 14.46C182.76 14.8067 183.413 14.98 184.253 14.98ZM192.793 5.48H194.213V13.84L201.233 5.48H202.493V16H201.073V7.64L194.073 16H192.793V5.48ZM197.573 3.96C196.667 3.96 195.947 3.73333 195.413 3.28C194.88 2.82667 194.607 2.18667 194.593 1.36H195.613C195.627 1.88 195.813 2.3 196.173 2.62C196.533 2.92667 197 3.08 197.573 3.08C198.147 3.08 198.613 2.92667 198.973 2.62C199.347 2.3 199.54 1.88 199.553 1.36H200.573C200.56 2.18667 200.28 2.82667 199.733 3.28C199.2 3.73333 198.48 3.96 197.573 3.96ZM210.963 16.1C209.923 16.1 208.99 15.8733 208.163 15.42C207.35 14.9667 206.71 14.3333 206.243 13.52C205.776 12.6933 205.543 11.7667 205.543 10.74C205.543 9.71333 205.776 8.79333 206.243 7.98C206.71 7.16667 207.35 6.53333 208.163 6.08C208.99 5.62667 209.923 5.4 210.963 5.4C211.87 5.4 212.676 5.58 213.383 5.94C214.103 6.28667 214.67 6.8 215.083 7.48L214.023 8.2C213.676 7.68 213.236 7.29333 212.703 7.04C212.17 6.77333 211.59 6.64 210.963 6.64C210.203 6.64 209.516 6.81333 208.903 7.16C208.303 7.49333 207.83 7.97333 207.483 8.6C207.15 9.22667 206.983 9.94 206.983 10.74C206.983 11.5533 207.15 12.2733 207.483 12.9C207.83 13.5133 208.303 13.9933 208.903 14.34C209.516 14.6733 210.203 14.84 210.963 14.84C211.59 14.84 212.17 14.7133 212.703 14.46C213.236 14.2067 213.676 13.82 214.023 13.3L215.083 14.02C214.67 14.7 214.103 15.22 213.383 15.58C212.663 15.9267 211.856 16.1 210.963 16.1ZM222.893 5.74C223.867 5.74 224.733 5.96 225.493 6.4C226.267 6.82667 226.867 7.43333 227.293 8.22C227.72 8.99333 227.933 9.88 227.933 10.88C227.933 11.9067 227.707 12.82 227.253 13.62C226.813 14.4067 226.193 15.02 225.393 15.46C224.593 15.9 223.673 16.12 222.633 16.12C220.887 16.12 219.533 15.5067 218.573 14.28C217.613 13.0533 217.133 11.36 217.133 9.2C217.133 6.94667 217.56 5.22 218.413 4.02C219.28 2.82 220.627 2.00667 222.453 1.58L227.173 0.499999L227.413 1.8L222.973 2.82C221.467 3.15333 220.36 3.74667 219.653 4.6C218.947 5.44 218.56 6.68667 218.493 8.34C218.92 7.52667 219.513 6.89333 220.273 6.44C221.033 5.97333 221.907 5.74 222.893 5.74ZM222.673 14.94C223.407 14.94 224.06 14.7733 224.633 14.44C225.22 14.0933 225.673 13.6133 225.993 13C226.327 12.3867 226.493 11.6933 226.493 10.92C226.493 10.1467 226.333 9.46667 226.013 8.88C225.693 8.29333 225.24 7.84 224.653 7.52C224.08 7.18667 223.42 7.02 222.673 7.02C221.927 7.02 221.26 7.18667 220.673 7.52C220.1 7.84 219.647 8.29333 219.313 8.88C218.993 9.46667 218.833 10.1467 218.833 10.92C218.833 11.6933 218.993 12.3867 219.313 13C219.647 13.6133 220.107 14.0933 220.693 14.44C221.28 14.7733 221.94 14.94 222.673 14.94ZM240.177 11.18H231.377C231.457 12.2733 231.877 13.16 232.637 13.84C233.397 14.5067 234.357 14.84 235.517 14.84C236.17 14.84 236.77 14.7267 237.317 14.5C237.864 14.26 238.337 13.9133 238.737 13.46L239.537 14.38C239.07 14.94 238.484 15.3667 237.777 15.66C237.084 15.9533 236.317 16.1 235.477 16.1C234.397 16.1 233.437 15.8733 232.597 15.42C231.77 14.9533 231.124 14.3133 230.657 13.5C230.19 12.6867 229.957 11.7667 229.957 10.74C229.957 9.71333 230.177 8.79333 230.617 7.98C231.07 7.16667 231.684 6.53333 232.457 6.08C233.244 5.62667 234.124 5.4 235.097 5.4C236.07 5.4 236.944 5.62667 237.717 6.08C238.49 6.53333 239.097 7.16667 239.537 7.98C239.977 8.78 240.197 9.7 240.197 10.74L240.177 11.18ZM235.097 6.62C234.084 6.62 233.23 6.94667 232.537 7.6C231.857 8.24 231.47 9.08 231.377 10.12H238.837C238.744 9.08 238.35 8.24 237.657 7.6C236.977 6.94667 236.124 6.62 235.097 6.62ZM248.76 5.4C249.747 5.4 250.64 5.62667 251.44 6.08C252.24 6.52 252.867 7.14667 253.32 7.96C253.774 8.77333 254 9.7 254 10.74C254 11.7933 253.774 12.7267 253.32 13.54C252.867 14.3533 252.24 14.9867 251.44 15.44C250.654 15.88 249.76 16.1 248.76 16.1C247.907 16.1 247.134 15.9267 246.44 15.58C245.76 15.22 245.2 14.7 244.76 14.02V19.88H243.34V5.48H244.7V7.56C245.127 6.86667 245.687 6.33333 246.38 5.96C247.087 5.58667 247.88 5.4 248.76 5.4ZM248.66 14.84C249.394 14.84 250.06 14.6733 250.66 14.34C251.26 13.9933 251.727 13.5067 252.06 12.88C252.407 12.2533 252.58 11.54 252.58 10.74C252.58 9.94 252.407 9.23333 252.06 8.62C251.727 7.99333 251.26 7.50667 250.66 7.16C250.06 6.81333 249.394 6.64 248.66 6.64C247.914 6.64 247.24 6.81333 246.64 7.16C246.054 7.50667 245.587 7.99333 245.24 8.62C244.907 9.23333 244.74 9.94 244.74 10.74C244.74 11.54 244.907 12.2533 245.24 12.88C245.587 13.5067 246.054 13.9933 246.64 14.34C247.24 14.6733 247.914 14.84 248.66 14.84ZM264.491 6.74H258.471V16H257.051V5.48H264.491V6.74ZM270.395 16.1C269.382 16.1 268.468 15.8733 267.655 15.42C266.842 14.9533 266.202 14.3133 265.735 13.5C265.268 12.6867 265.035 11.7667 265.035 10.74C265.035 9.71333 265.268 8.79333 265.735 7.98C266.202 7.16667 266.842 6.53333 267.655 6.08C268.468 5.62667 269.382 5.4 270.395 5.4C271.408 5.4 272.322 5.62667 273.135 6.08C273.948 6.53333 274.582 7.16667 275.035 7.98C275.502 8.79333 275.735 9.71333 275.735 10.74C275.735 11.7667 275.502 12.6867 275.035 13.5C274.582 14.3133 273.948 14.9533 273.135 15.42C272.322 15.8733 271.408 16.1 270.395 16.1ZM270.395 14.84C271.142 14.84 271.808 14.6733 272.395 14.34C272.995 13.9933 273.462 13.5067 273.795 12.88C274.128 12.2533 274.295 11.54 274.295 10.74C274.295 9.94 274.128 9.22667 273.795 8.6C273.462 7.97333 272.995 7.49333 272.395 7.16C271.808 6.81333 271.142 6.64 270.395 6.64C269.648 6.64 268.975 6.81333 268.375 7.16C267.788 7.49333 267.322 7.97333 266.975 8.6C266.642 9.22667 266.475 9.94 266.475 10.74C266.475 11.54 266.642 12.2533 266.975 12.88C267.322 13.5067 267.788 13.9933 268.375 14.34C268.975 14.6733 269.648 14.84 270.395 14.84ZM285.47 10.56C286.897 10.8933 287.61 11.7533 287.61 13.14C287.61 14.06 287.27 14.7667 286.59 15.26C285.91 15.7533 284.897 16 283.55 16H278.77V5.48H283.41C284.61 5.48 285.55 5.71333 286.23 6.18C286.91 6.64667 287.25 7.31333 287.25 8.18C287.25 8.75333 287.09 9.24667 286.77 9.66C286.463 10.06 286.03 10.36 285.47 10.56ZM280.15 10.16H283.31C284.123 10.16 284.743 10.0067 285.17 9.7C285.61 9.39333 285.83 8.94667 285.83 8.36C285.83 7.77333 285.61 7.33333 285.17 7.04C284.743 6.74667 284.123 6.6 283.31 6.6H280.15V10.16ZM283.49 14.88C284.397 14.88 285.077 14.7333 285.53 14.44C285.983 14.1467 286.21 13.6867 286.21 13.06C286.21 12.4333 286.003 11.9733 285.59 11.68C285.177 11.3733 284.523 11.22 283.63 11.22H280.15V14.88H283.49ZM296.172 5.48H297.592V13.84L304.612 5.48H305.872V16H304.452V7.64L297.452 16H296.172V5.48ZM324.616 5.48V16H323.196V6.74H316.596V16H315.176V5.48H324.616ZM328.653 5.48H330.073V13.84L337.093 5.48H338.353V16H336.933V7.64L329.933 16H328.653V5.48ZM342.422 5.48H343.842V10.14H350.462V5.48H351.882V16H350.462V11.36H343.842V16H342.422V5.48ZM363.358 6.74H357.338V16H355.918V5.48H363.358V6.74ZM372.111 10.56C373.537 10.8933 374.251 11.7533 374.251 13.14C374.251 14.06 373.911 14.7667 373.231 15.26C372.551 15.7533 371.537 16 370.191 16H365.411V5.48H370.051C371.251 5.48 372.191 5.71333 372.871 6.18C373.551 6.64667 373.891 7.31333 373.891 8.18C373.891 8.75333 373.731 9.24667 373.411 9.66C373.104 10.06 372.671 10.36 372.111 10.56ZM366.791 10.16H369.951C370.764 10.16 371.384 10.0067 371.811 9.7C372.251 9.39333 372.471 8.94667 372.471 8.36C372.471 7.77333 372.251 7.33333 371.811 7.04C371.384 6.74667 370.764 6.6 369.951 6.6H366.791V10.16ZM370.131 14.88C371.037 14.88 371.717 14.7333 372.171 14.44C372.624 14.1467 372.851 13.6867 372.851 13.06C372.851 12.4333 372.644 11.9733 372.231 11.68C371.817 11.3733 371.164 11.22 370.271 11.22H366.791V14.88H370.131ZM377.579 5.48H378.999V13.84L386.019 5.48H387.279V16H385.859V7.64L378.859 16H377.579V5.48ZM391.348 5.48H392.768V10.14H399.388V5.48H400.808V16H399.388V11.36H392.768V16H391.348V5.48ZM409.184 16.1C408.171 16.1 407.258 15.8733 406.444 15.42C405.631 14.9533 404.991 14.3133 404.524 13.5C404.058 12.6867 403.824 11.7667 403.824 10.74C403.824 9.71333 404.058 8.79333 404.524 7.98C404.991 7.16667 405.631 6.53333 406.444 6.08C407.258 5.62667 408.171 5.4 409.184 5.4C410.198 5.4 411.111 5.62667 411.924 6.08C412.738 6.53333 413.371 7.16667 413.824 7.98C414.291 8.79333 414.524 9.71333 414.524 10.74C414.524 11.7667 414.291 12.6867 413.824 13.5C413.371 14.3133 412.738 14.9533 411.924 15.42C411.111 15.8733 410.198 16.1 409.184 16.1ZM409.184 14.84C409.931 14.84 410.598 14.6733 411.184 14.34C411.784 13.9933 412.251 13.5067 412.584 12.88C412.918 12.2533 413.084 11.54 413.084 10.74C413.084 9.94 412.918 9.22667 412.584 8.6C412.251 7.97333 411.784 7.49333 411.184 7.16C410.598 6.81333 409.931 6.64 409.184 6.64C408.438 6.64 407.764 6.81333 407.164 7.16C406.578 7.49333 406.111 7.97333 405.764 8.6C405.431 9.22667 405.264 9.94 405.264 10.74C405.264 11.54 405.431 12.2533 405.764 12.88C406.111 13.5067 406.578 13.9933 407.164 14.34C407.764 14.6733 408.438 14.84 409.184 14.84ZM424.259 10.56C425.686 10.8933 426.399 11.7533 426.399 13.14C426.399 14.06 426.059 14.7667 425.379 15.26C424.699 15.7533 423.686 16 422.339 16H417.559V5.48H422.199C423.399 5.48 424.339 5.71333 425.019 6.18C425.699 6.64667 426.039 7.31333 426.039 8.18C426.039 8.75333 425.879 9.24667 425.559 9.66C425.252 10.06 424.819 10.36 424.259 10.56ZM418.939 10.16H422.099C422.912 10.16 423.532 10.0067 423.959 9.7C424.399 9.39333 424.619 8.94667 424.619 8.36C424.619 7.77333 424.399 7.33333 423.959 7.04C423.532 6.74667 422.912 6.6 422.099 6.6H418.939V10.16ZM422.279 14.88C423.186 14.88 423.866 14.7333 424.319 14.44C424.772 14.1467 424.999 13.6867 424.999 13.06C424.999 12.4333 424.792 11.9733 424.379 11.68C423.966 11.3733 423.312 11.22 422.419 11.22H418.939V14.88H422.279Z" fill="#F9FBFD"/>
</svg>
