<svg width="632" height="49" viewBox="0 0 632 49" fill="none" xmlns="http://www.w3.org/2000/svg">
<path d="M15.332 22.772H9.284V38H0.59V0.199997H9.284V15.482H15.548L25.484 0.199997H34.718L22.352 18.452L35.096 38H25.16L15.332 22.772ZM56.3496 8.516C59.0496 8.516 61.4976 9.146 63.6936 10.406C65.9256 11.63 67.6716 13.376 68.9316 15.644C70.1916 17.876 70.8216 20.486 70.8216 23.474C70.8216 26.462 70.1916 29.09 68.9316 31.358C67.6716 33.59 65.9256 35.336 63.6936 36.596C61.4976 37.82 59.0496 38.432 56.3496 38.432C52.6416 38.432 49.7256 37.262 47.6016 34.922V48.476H39.1776V8.948H47.2236V12.296C49.3116 9.776 52.3536 8.516 56.3496 8.516ZM54.8916 31.52C57.0516 31.52 58.8156 30.8 60.1836 29.36C61.5876 27.884 62.2896 25.922 62.2896 23.474C62.2896 21.026 61.5876 19.082 60.1836 17.642C58.8156 16.166 57.0516 15.428 54.8916 15.428C52.7316 15.428 50.9496 16.166 49.5456 17.642C48.1776 19.082 47.4936 21.026 47.4936 23.474C47.4936 25.922 48.1776 27.884 49.5456 29.36C50.9496 30.8 52.7316 31.52 54.8916 31.52ZM105.041 8.948L91.9188 39.782C90.5868 43.13 88.9308 45.488 86.9508 46.856C85.0068 48.224 82.6488 48.908 79.8768 48.908C78.3648 48.908 76.8708 48.674 75.3948 48.206C73.9188 47.738 72.7128 47.09 71.7768 46.262L74.8548 40.268C75.5028 40.844 76.2408 41.294 77.0688 41.618C77.9328 41.942 78.7788 42.104 79.6068 42.104C80.7588 42.104 81.6948 41.816 82.4148 41.24C83.1348 40.7 83.7828 39.782 84.3588 38.486L84.4668 38.216L71.8848 8.948H80.5788L88.7328 28.658L96.9408 8.948H105.041ZM109.105 8.948H117.475V26.228L131.623 8.948H139.345V38H130.975V20.72L116.881 38H109.105V8.948ZM166.025 22.88C167.753 23.42 169.085 24.248 170.021 25.364C170.993 26.48 171.479 27.812 171.479 29.36C171.479 31.196 170.849 32.816 169.589 34.22C168.329 35.588 166.601 36.65 164.405 37.406C162.209 38.162 159.725 38.54 156.953 38.54C154.685 38.54 152.453 38.306 150.257 37.838C148.061 37.37 146.027 36.668 144.155 35.732L146.423 29.846C149.483 31.322 152.867 32.06 156.575 32.06C158.555 32.06 160.103 31.772 161.219 31.196C162.371 30.584 162.947 29.738 162.947 28.658C162.947 27.722 162.551 27.02 161.759 26.552C160.967 26.048 159.815 25.796 158.303 25.796H152.363V20.558H157.547C159.023 20.558 160.157 20.324 160.949 19.856C161.741 19.388 162.137 18.704 162.137 17.804C162.137 16.868 161.633 16.148 160.625 15.644C159.653 15.14 158.249 14.888 156.413 14.888C153.605 14.888 150.545 15.554 147.233 16.886L145.181 11.054C149.213 9.29 153.137 8.408 156.953 8.408C159.581 8.408 161.921 8.732 163.973 9.38C166.061 10.028 167.699 10.982 168.887 12.242C170.075 13.466 170.669 14.906 170.669 16.562C170.669 17.93 170.255 19.172 169.427 20.288C168.599 21.368 167.465 22.232 166.025 22.88ZM192.889 18.236C196.669 18.272 199.531 19.118 201.475 20.774C203.419 22.43 204.391 24.806 204.391 27.902C204.391 31.142 203.293 33.644 201.097 35.408C198.901 37.172 195.787 38.054 191.755 38.054L177.607 38V8.948H185.977V18.236H192.889ZM207.523 8.948H215.893V38H207.523V8.948ZM190.999 32.06C192.619 32.096 193.861 31.754 194.725 31.034C195.589 30.314 196.021 29.234 196.021 27.794C196.021 26.39 195.589 25.364 194.725 24.716C193.897 24.068 192.655 23.726 190.999 23.69L185.977 23.636V32.06H190.999ZM261.5 22.826C264.92 23.978 266.63 26.282 266.63 29.738C266.63 32.366 265.64 34.4 263.66 35.84C261.68 37.28 258.728 38 254.804 38H239.306V8.948H254.156C257.792 8.948 260.636 9.614 262.688 10.946C264.74 12.242 265.766 14.078 265.766 16.454C265.766 17.894 265.388 19.172 264.632 20.288C263.912 21.368 262.868 22.214 261.5 22.826ZM247.028 20.882H253.4C256.352 20.882 257.828 19.838 257.828 17.75C257.828 15.698 256.352 14.672 253.4 14.672H247.028V20.882ZM254.102 32.276C257.198 32.276 258.746 31.214 258.746 29.09C258.746 27.974 258.386 27.164 257.666 26.66C256.946 26.12 255.812 25.85 254.264 25.85H247.028V32.276H254.102ZM314.435 29.9H296.885L293.537 38H284.573L301.421 0.199997H310.061L326.963 38H317.783L314.435 29.9ZM311.681 23.258L305.687 8.786L299.693 23.258H311.681ZM331.327 8.948H339.697V20.288H352.333V8.948H360.757V38H352.333V27.146H339.697V38H331.327V8.948ZM393.229 15.86H383.401V38H375.031V15.86H365.203V8.948H393.229V15.86ZM409.006 8.516C413.506 8.516 416.962 9.596 419.374 11.756C421.786 13.88 422.992 17.102 422.992 21.422V38H415.108V34.382C413.524 37.082 410.572 38.432 406.252 38.432C404.02 38.432 402.076 38.054 400.42 37.298C398.8 36.542 397.558 35.498 396.694 34.166C395.83 32.834 395.398 31.322 395.398 29.63C395.398 26.93 396.406 24.806 398.422 23.258C400.474 21.71 403.624 20.936 407.872 20.936H414.568C414.568 19.1 414.01 17.696 412.894 16.724C411.778 15.716 410.104 15.212 407.872 15.212C406.324 15.212 404.794 15.464 403.282 15.968C401.806 16.436 400.546 17.084 399.502 17.912L396.478 12.026C398.062 10.91 399.952 10.046 402.148 9.434C404.38 8.822 406.666 8.516 409.006 8.516ZM408.358 32.762C409.798 32.762 411.076 32.438 412.192 31.79C413.308 31.106 414.1 30.116 414.568 28.82V25.85H408.79C405.334 25.85 403.606 26.984 403.606 29.252C403.606 30.332 404.02 31.196 404.848 31.844C405.712 32.456 406.882 32.762 408.358 32.762ZM447.428 8.516C450.128 8.516 452.576 9.146 454.772 10.406C457.004 11.63 458.75 13.376 460.01 15.644C461.27 17.876 461.9 20.486 461.9 23.474C461.9 26.462 461.27 29.09 460.01 31.358C458.75 33.59 457.004 35.336 454.772 36.596C452.576 37.82 450.128 38.432 447.428 38.432C443.72 38.432 440.804 37.262 438.68 34.922V48.476H430.256V8.948H438.302V12.296C440.39 9.776 443.432 8.516 447.428 8.516ZM445.97 31.52C448.13 31.52 449.894 30.8 451.262 29.36C452.666 27.884 453.368 25.922 453.368 23.474C453.368 21.026 452.666 19.082 451.262 17.642C449.894 16.166 448.13 15.428 445.97 15.428C443.81 15.428 442.028 16.166 440.624 17.642C439.256 19.082 438.572 21.026 438.572 23.474C438.572 25.922 439.256 27.884 440.624 29.36C442.028 30.8 443.81 31.52 445.97 31.52ZM480.602 26.984H476.228V38H467.804V8.948H476.228V20.234H480.764L488.648 8.948H497.612L487.46 22.88L498.314 38H488.378L480.602 26.984ZM526.595 15.86H516.767V38H508.397V15.86H498.569V8.948H526.595V15.86ZM531.085 8.948H539.455V26.228L553.603 8.948H561.325V38H552.955V20.72L538.861 38H531.085V8.948ZM582.221 26.984H577.847V38H569.423V8.948H577.847V20.234H582.383L590.267 8.948H599.231L589.079 22.88L599.933 38H589.997L582.221 26.984ZM631.541 8.948L618.419 39.782C617.087 43.13 615.431 45.488 613.451 46.856C611.507 48.224 609.149 48.908 606.377 48.908C604.865 48.908 603.371 48.674 601.895 48.206C600.419 47.738 599.213 47.09 598.277 46.262L601.355 40.268C602.003 40.844 602.741 41.294 603.569 41.618C604.433 41.942 605.279 42.104 606.107 42.104C607.259 42.104 608.195 41.816 608.915 41.24C609.635 40.7 610.283 39.782 610.859 38.486L610.967 38.216L598.385 8.948H607.079L615.233 28.658L623.441 8.948H631.541Z" fill="#F9FBFD"/>
</svg>
